<?xml version="1.0" ?><svg viewBox="0 0 64 64" xmlns="http://www.w3.org/2000/svg"><defs><style>.cls-1{fill:none;stroke:#000;stroke-linecap:round;stroke-linejoin:round;stroke-width:2px;}</style></defs><title/><g data-name="Layer 6" id="Layer_6"><path class="cls-1" d="M50.43,17.19V46.27a4.64,4.64,0,0,1-4.62,4.63H17.22a4.64,4.64,0,0,1-4.62-4.62V17.19a4.64,4.64,0,0,1,4.63-4.63H45.81"/><circle cx="50.48" cy="13.85" r="1"/><polyline class="cls-1" points="24.82 25.75 22.95 40.75 28.27 40.75 28.69 37.43"/><path class="cls-1" d="M28.69,37.43l.56-4.51H33.1a6.06,6.06,0,0,0,6-6,6,6,0,0,0-6-6H25.43v0l-.6,4.86"/><polyline class="cls-1" points="29.55 30.26 29.98 26.8 29.99 26.78 36.18 26.78"/><path class="cls-1" d="M39.12,27.78a4.87,4.87,0,0,1-2.94,8.75H33.07l-.79,6.33H30"/></g></svg>